<?xml version="1.0" encoding="UTF-8"?>
<svg xmlns="http://www.w3.org/2000/svg" width="75" height="75" viewBox="0 0 75 75" fill="none">
  <path d="M41.25 71.25L27.75 43.5375C27.4429 42.9035 26.9635 42.3688 26.3666 41.9946C25.7697 41.6205 25.0795 41.4221 24.375 41.4221C23.6705 41.4221 22.9803 41.6205 22.3834 41.9946C21.7865 42.3688 21.3071 42.9035 21 43.5375L7.5 71.25H41.25ZM41.25 71.25L32.3625 53.025L41.7 35.7C42.0213 35.1047 42.4977 34.6074 43.0786 34.2608C43.6596 33.9142 44.3235 33.7312 45 33.7312C45.6765 33.7312 46.3404 33.9142 46.9213 34.2608C47.5023 34.6074 47.9787 35.1047 48.3 35.7L67.5 71.25H41.25ZM3.75001 71.25H71.25M15 3.75C12.775 3.75 10.5999 4.4098 8.74984 5.64597C6.89979 6.88213 5.45785 8.63914 4.60636 10.6948C3.75487 12.7505 3.53209 15.0125 3.96617 17.1948C4.40025 19.3771 5.47171 21.3816 7.04505 22.955C8.61839 24.5283 10.623 25.5998 12.8052 26.0338C14.9875 26.4679 17.2495 26.2451 19.3052 25.3936C21.3609 24.5422 23.1179 23.1002 24.354 21.2502C25.5902 19.4001 26.25 17.225 26.25 15C26.25 12.0163 25.0647 9.15483 22.955 7.04505C20.8452 4.93526 17.9837 3.75 15 3.75Z" stroke="currentColor" stroke-width="7.5" stroke-linecap="round" stroke-linejoin="round"></path>
</svg>
